<svg xmlns="http://www.w3.org/2000/svg" width="21.647" height="20.668" viewBox="0 0 21.647 20.668"><defs><style>.a{fill:#fff;}</style></defs><g transform="translate(0 -1.049)"><path class="a" d="M10.074,1.516a.838.838,0,0,1,1.5,0l2.7,5.462a.838.838,0,0,0,.631.458l6.027.876a.838.838,0,0,1,.464,1.429l-4.361,4.252a.839.839,0,0,0-.241.742l1.029,6a.839.839,0,0,1-1.217.884l-5.391-2.835a.838.838,0,0,0-.78,0L5.042,21.621a.838.838,0,0,1-1.216-.884l1.029-6a.838.838,0,0,0-.241-.742L.253,9.741A.838.838,0,0,1,.718,8.312l6.028-.876a.838.838,0,0,0,.631-.459Z"/></g></svg>