<svg xmlns="http://www.w3.org/2000/svg" width="20.163" height="20.579" viewBox="0 0 20.163 20.579"><defs><style>.a{fill:#fff;}</style></defs><path class="a" d="M138.289,136.816H148a9.736,9.736,0,0,1,.161,1.715,10.853,10.853,0,0,1-1.219,5.192,8.8,8.8,0,0,1-3.477,3.57,10.275,10.275,0,0,1-5.178,1.286,10.115,10.115,0,0,1-4.006-.811,10.084,10.084,0,0,1-5.473-5.473,10.3,10.3,0,0,1,0-8.012,10.085,10.085,0,0,1,5.473-5.473,10.115,10.115,0,0,1,4.006-.811,9.75,9.75,0,0,1,6.9,2.693l-2.8,2.693a5.664,5.664,0,0,0-4.1-1.594,6.147,6.147,0,0,0-3.2.871,6.553,6.553,0,0,0,0,11.254,6.147,6.147,0,0,0,3.2.871,6.83,6.83,0,0,0,2.144-.322,5.406,5.406,0,0,0,1.608-.8,5.816,5.816,0,0,0,1.1-1.1,5.119,5.119,0,0,0,.69-1.166,4.923,4.923,0,0,0,.3-1.045h-5.841Z" transform="translate(-128 -128)"/></svg>