<svg xmlns="http://www.w3.org/2000/svg" width="19.907" height="24" viewBox="0 0 19.907 24"><defs><style>.a{fill:#e9e9e9;}</style></defs><g transform="translate(0)"><g transform="translate(10.454 15.423)"><path class="a" d="M222.491,273.627a1.142,1.142,0,0,0-.32-.233,3.863,3.863,0,0,0-.811-.287v2.147a1.525,1.525,0,0,0,1.2-.634h0a.981.981,0,0,0,.089-.67A.674.674,0,0,0,222.491,273.627Z" transform="translate(-221.36 -273.108)"/></g><g transform="translate(11.654 16.936)"><path class="a" d="M242.6,299.9l0,0h0Z" transform="translate(-242.604 -299.9)"/></g><g transform="translate(8.2 11.978)"><path class="a" d="M181.586,212.638a.805.805,0,0,0-.139.377.905.905,0,0,0,.046.417.669.669,0,0,0,.26.286,2.029,2.029,0,0,0,.386.2c.113.045.239.089.376.131v-1.943A1.482,1.482,0,0,0,181.586,212.638Z" transform="translate(-181.441 -212.106)"/></g><g transform="translate(11.657 16.92)"><path class="a" d="M242.656,299.619l-.009.016h0Z" transform="translate(-242.647 -299.619)"/></g><g transform="translate(11.677 16.899)"><path class="a" d="M243,299.245Z" transform="translate(-243.004 -299.244)"/></g><path class="a" d="M47.449,5.222C49.275,3.688,50.495.233,49.744.082c-1-.2-3.164.68-4.211.835-1.485.179-3.1-1.61-4.01-.613-.738.811.529,3.761,2.512,5.046-5.916,2.907-14.231,17.5.275,18.562C64.381,25.378,54.331,8.055,47.449,5.222Zm1.724,11.511a2.11,2.11,0,0,1-.814,1.433,3.111,3.111,0,0,1-1.666.589v.629a.59.59,0,1,1-1.181,0V18.7c-.1-.019-.2-.042-.3-.07a2.9,2.9,0,0,1-1.444-.888A2.6,2.6,0,0,1,43.32,17c-.028-.07-.052-.141-.074-.214a1.1,1.1,0,0,1-.047-.2.59.59,0,0,1,1.148-.245c.022.068.038.138.063.205a1.316,1.316,0,0,0,.091.194,1.5,1.5,0,0,0,.259.332,1.757,1.757,0,0,0,.751.409V15.148a4.2,4.2,0,0,1-1.548-.669,1.8,1.8,0,0,1-.523-.628,1.965,1.965,0,0,1-.182-.845,2.014,2.014,0,0,1,.177-.856,2.086,2.086,0,0,1,.484-.665,2.957,2.957,0,0,1,1.592-.705v-.653a.59.59,0,1,1,1.181,0v.649q.116.015.231.035a2.916,2.916,0,0,1,1.541.748,2.253,2.253,0,0,1,.472.678,2.163,2.163,0,0,1,.083.216,1.312,1.312,0,0,1,.056.211.59.59,0,0,1-1.135.3c-.025-.064-.037-.133-.062-.2a1.04,1.04,0,0,0-.1-.186,1.126,1.126,0,0,0-.279-.292,1.914,1.914,0,0,0-.81-.317v2.235a7.5,7.5,0,0,1,1.008.3,2.357,2.357,0,0,1,1.231.964c-.042-.073-.082-.145,0,0s.043.076,0,0A2.106,2.106,0,0,1,49.173,16.733Z" transform="translate(-36.238 0)"/><g transform="translate(11.639 16.951)"><path class="a" d="M242.346,300.169l-.009.016Z" transform="translate(-242.337 -300.169)"/></g></g></svg>