<svg xmlns="http://www.w3.org/2000/svg" width="18.055" height="17.924" viewBox="0 0 18.055 17.924"><defs><style>.a{fill:#e9e9e9;}</style></defs><path class="a" d="M17.424,8.934a.8.8,0,0,0-.375.1l-2.619,1.373c-.033.017-.1.037-.1.059V9.6a.924.924,0,0,0-.937-.929H13.13A4.36,4.36,0,1,0,5.97,4.573,2.974,2.974,0,0,0,.515,6.223,3.031,3.031,0,0,0,1.784,8.666H.969A.952.952,0,0,0,0,9.6v6.6a.954.954,0,0,0,.969.931h.672v.884a.983.983,0,0,0,.987.946h9.105a.955.955,0,0,0,.955-.946v-.884h.7a.926.926,0,0,0,.937-.931v-.871c0,.021.069.041.1.059l2.619,1.373a.785.785,0,0,0,.372.1.647.647,0,0,0,.632-.718V9.652A.646.646,0,0,0,17.424,8.934ZM6.294,7.226a4.88,4.88,0,0,0,1.074,1.44H5.2A3.118,3.118,0,0,0,6.294,7.226Z" transform="translate(0 -1.032)"/></svg>